 http://www.shotpix.com/images/15139158334755126864.jpg



Plot:A troubled hedge fund magnate desperate to complete the sale of his trading empire makes an error that forces him to turn to an unlikely person for help.
 


Director: 
Nicholas Jarecki

 Writer: 
Nicholas Jarecki (screenplay)
 
Stars:
 Richard Gere, Susan Sarandon and Brit Marling

Genres:
 Drama | Thriller 


Country:
USA 

Language:
English 




Format                                   : AVI
Format/Info                              : Audio Video Interleave
File size                                : 707 MiB
Duration                                 : 1h 42mn
Overall bit rate                         : 966 Kbps

Video
ID                                       : 0
Format                                   : MPEG-4 Visual
Format profile                           : Simple@L3
Format settings, BVOP                    : No
Format settings, QPel                    : No
Format settings, GMC                     : No warppoints
Format settings, Matrix                  : Default (H.263)
Codec ID                                 : XVID
Codec ID/Hint                            : XviD
Duration                                 : 1h 42mn
Source duration                          : 1h 42mn
Bit rate                                 : 825 Kbps
Width                                    : 624 pixels
Height                                   : 336 pixels
Display aspect ratio                     : 1.85:1
Frame rate                               : 25.000 fps
Color space                              : YUV
Chroma subsampling                       : 4:2:0
Bit depth                                : 8 bits
Scan type                                : Progressive
Compression mode                         : Lossy
Bits/(Pixel*Frame)                       : 0.157
Stream size                              : 604 MiB (85%)
Writing library                          : XviD 1.1.2 (UTC 2006-11-01)

Audio
ID                                       : 1
Format                                   : MPEG Audio
Format version                           : Version 1
Format profile                           : Layer 3
Mode                                     : Joint stereo
Mode extension                           : MS Stereo
Codec ID                                 : 55
Codec ID/Hint                            : MP3
Duration                                 : 1h 42mn
Bit rate mode                            : Constant
Bit rate                                 : 128 Kbps
Channel(s)                               : 2 channels
Sampling rate                            : 48.0 KHz
Compression mode                         : Lossy
Stream size                              : 93.7 MiB (13%)
Alignment                                : Split accross interleaves
Interleave, duration                     : 24 ms (0.60 video frame)



 
http://www.shotpix.com/images/61089930535295166139.png 
http://www.shotpix.com/images/76696502334486335064.png 
http://www.shotpix.com/images/80350493298319932961.png 
http://www.shotpix.com/images/51852650904162110007.png